<svg width="871" height="756" viewBox="0 0 871 756" fill="none" xmlns="http://www.w3.org/2000/svg">
  <path d="M871 0H0L435 756L871 0Z" fill="#fff" />
  <path d="M435.47 741.93L860.94 5H10L435.47 741.93Z" fill="#fff" />
  <path
    d="M859.34 6.1001L839.2 40.9901L818.22 77.3401L744.53 204.97L723.54 241.32L476.34 669.48L455.36 705.84L435.21 740.71L415.09 705.85L394.1 669.5L146.89 241.32L125.9 204.97L52.2101 77.3401L31.2301 40.9901L11.0901 6.1001H859.34Z"
    fill="#fff" />
  <path
    d="M435.72 12.1901H22.1601L435.72 728.07V740.83L11.0901 6.1001H435.72V12.1901zM435.72 740.71V6.1001H859.85L435.72 740.71z"
    fill="#000" />
  <path
    d="M431 260.78L397.82 241.63L332.74 204H200.94L124.76 72H125L103.34 34.52H60.1299L81.8199 72.08L158 203.94L179.68 241.5L181.97 245.45L397.41 618.69L412.97 645.69L435.72 685V263.5L431 260.78ZM397.15 545.57L222.25 242.57H321.87L397.15 286.01V545.57Z"
    fill="#000" />
  <path
    d="M435.72 34.52V686L460.45 643L473.28 620.74V241.6H529.33L618.82 293.3L510.82 480.41V555.22L651.2 312L670 279.46L637.62 260.76L604.45 241.6H691.81L713.5 204L789.63 72.1L811.31 34.52H435.72ZM670.49 204H473.28V72H746.68L670.49 204Z"
    fill="#fff" />
  <path
    d="M443.6 41.6299H432.93C430.55 41.6299 428.62 43.5595 428.62 45.9399V252.52C428.62 254.9 430.55 256.83 432.93 256.83H443.6C445.98 256.83 447.91 254.9 447.91 252.52V45.9399C447.91 43.5595 445.98 41.6299 443.6 41.6299Z"
    fill="#fff" />
  <path d="M445.421 255.2L437.999 250.915L431.624 261.957L439.046 266.242L445.421 255.2Z" fill="#fff" />
  <path d="M434.71 34.52H91.6001V40.61H434.71V34.52Z" fill="#000" />
</svg>