<svg width="39" height="39" viewBox="0 0 39 39" fill="none" xmlns="http://www.w3.org/2000/svg">
  <path
    d="M17.0208 28.3532L30.3365 15.0375L27.6922 12.3932L17.0208 23.0647L11.6378 17.6817L8.99356 20.326L17.0208 28.3532ZM19.665 38.5525C17.0522 38.5525 14.5969 38.0564 12.2989 37.0641C10.0009 36.0732 8.00196 34.7277 6.30208 33.0279C4.6022 31.328 3.25677 29.329 2.26581 27.0311C1.27358 24.7331 0.777466 22.2777 0.777466 19.6649C0.777466 17.0521 1.27358 14.5967 2.26581 12.2988C3.25677 10.0008 4.6022 8.00184 6.30208 6.30196C8.00196 4.60208 10.0009 3.25602 12.2989 2.26379C14.5969 1.27283 17.0522 0.777344 19.665 0.777344C22.2778 0.777344 24.7332 1.27283 27.0312 2.26379C29.3292 3.25602 31.3281 4.60208 33.028 6.30196C34.7279 8.00184 36.0733 10.0008 37.0642 12.2988C38.0565 14.5967 38.5526 17.0521 38.5526 19.6649C38.5526 22.2777 38.0565 24.7331 37.0642 27.0311C36.0733 29.329 34.7279 31.328 33.028 33.0279C31.3281 34.7277 29.3292 36.0732 27.0312 37.0641C24.7332 38.0564 22.2778 38.5525 19.665 38.5525ZM19.665 34.775C23.8832 34.775 27.4561 33.3112 30.3837 30.3836C33.3113 27.456 34.7751 23.8831 34.7751 19.6649C34.7751 15.4467 33.3113 11.8738 30.3837 8.94621C27.4561 6.01864 23.8832 4.55486 19.665 4.55486C15.4468 4.55486 11.8739 6.01864 8.94634 8.94621C6.01876 11.8738 4.55498 15.4467 4.55498 19.6649C4.55498 23.8831 6.01876 27.456 8.94634 30.3836C11.8739 33.3112 15.4468 34.775 19.665 34.775Z"
    fill="#000" />
</svg>