<svg width="38" height="39" viewBox="0 0 38 39" fill="none" xmlns="http://www.w3.org/2000/svg">
  <path
    d="M19 38.1668C18.2445 38.1668 17.6116 37.9108 17.1014 37.3988C16.5894 36.8886 16.3334 36.2557 16.3334 35.5002V22.1668H3.00004C2.24449 22.1668 1.61071 21.9108 1.09871 21.3988C0.588486 20.8886 0.333374 20.2557 0.333374 19.5002C0.333374 18.7446 0.588486 18.1108 1.09871 17.5988C1.61071 17.0886 2.24449 16.8335 3.00004 16.8335H16.3334V3.50016C16.3334 2.74461 16.5894 2.11083 17.1014 1.59883C17.6116 1.08861 18.2445 0.833496 19 0.833496C19.7556 0.833496 20.3894 1.08861 20.9014 1.59883C21.4116 2.11083 21.6667 2.74461 21.6667 3.50016V16.8335H35C35.7556 16.8335 36.3885 17.0886 36.8987 17.5988C37.4107 18.1108 37.6667 18.7446 37.6667 19.5002C37.6667 20.2557 37.4107 20.8886 36.8987 21.3988C36.3885 21.9108 35.7556 22.1668 35 22.1668H21.6667V35.5002C21.6667 36.2557 21.4116 36.8886 20.9014 37.3988C20.3894 37.9108 19.7556 38.1668 19 38.1668Z"
    fill="#000" />
</svg>